{"title":"Bite.Marks.2011.DVDSCR.XviD-SiC","uid":6464899,"size":1086309732,"categoryP":"video","categoryS":"movies","magnet":"?xt=urn:btih:11f06d10aa00a8b7dd21aafcaa8f570aa3e7a7f6&amp;dn=Bite.Marks.2011.DVDSCR.XviD-SiC&amp;tr=udp%3A%2F%2Ftracker.openbittorrent.com%3A80&amp;tr=udp%3A%2F%2Fopen.demonii.com%3A1337&amp;tr=udp%3A%2F%2Ftracker.coppersurfer.tk%3A6969&amp;tr=udp%3A%2F%2Fexodus.desync.com%3A6969","seeders":0,"leechers":1,"uploader":"sceneline","files":5,"time":1307927667,"description":"- &lt;a href=&quot;\nhttp://www.Speed.Cd&quot; rel=&quot;nofollow&quot; target=&quot;_NEW&quot;&gt;\nhttp://www.Speed.Cd&lt;/a&gt; \n       &lt;a href=&quot;\nhttp://www.Speed.Cd&quot; rel=&quot;nofollow&quot; target=&quot;_NEW&quot;&gt;\nhttp://www.Speed.Cd&lt;/a&gt;       the fast  and The Hottest Private Tracker on the net\n\n(((--Registration will be open on june every weekend--)))\n\nPlease Seed back to make the speed Faster!!!\n\n------------------nfo--------------------------\n-\n\n\n\n\n\n\n\n\n\n\n\n\n\n\n\n\n\n\n\n\n\n\n\n\n\n\n\n\n\n\n\n\n\n\n\n\n\n\n\n\n          \n          \n              \n              \n                    \n                    \n                    \n                    \n\nBite.Marks.2011.DVDSCR.XviD-SiC\n\nPoster:\n[img]http://leetleech.org/images/12258698235971555817.jpg[/img]\n\nIMDB Link:\nhttp://www.imdb.com/title/tt1697878/\n\nDescription:\nTruck-driver Brewster takes over his missing brother's delivery of a load of coffins to a funeral home. He picks up hitchhiking gay couple Cary and Vogel whose relationship is in trouble to help him stay awake but when his GPS leads them into a deserted junkyard, his truck breaks down, stranding them. NIght falls, and the coffins reveal blood-thirty vampires. Now the mismatched trio must barricade themselves in the cab of the truck and try to survive until dawn...\n\nGeneral\nComplete name                    : Bite.Marks.2011.DVDSCR.XviD-SiC.avi\nFormat                           : AVI\nFormat/Info                      : Audio Video Interleave\nFile size                        : 1.00 GiB\nDuration                         : 1h 24mn\nOverall bit rate                 : 1 699 Kbps\nWriting application              : VirtualDubMod 1.5.4.1 (build 2178/release)\nWriting library                  : VirtualDub build 32842/release\n\nVideo\nID                               : 0\nFormat                           : MPEG-4 Visual\nFormat profile                   : Advanced Simple@L5\nFormat settings, BVOP            : No\nFormat settings, QPel            : No\nFormat settings, GMC             : No warppoints\nFormat settings, Matrix          : Custom\nCodec ID                         : XVID\nCodec ID/Hint                    : XviD\nDuration                         : 1h 24mn\nBit rate                         : 1 497 Kbps\nWidth                            : 720 pixels\nHeight                           : 416 pixels\nDisplay aspect ratio             : 16:9\nFrame rate                       : 23.976 fps\nColor space                      : YUV\nChroma subsampling               : 4:2:0\nBit depth                        : 8 bits\nScan type                        : Progressive\nCompression mode                 : Lossy\nBits/(Pixel*Frame)               : 0.208\nStream size                      : 904 MiB (88%)\nWriting library                  : XviD 63\n\nAudio\nID                               : 1\nFormat                           : AC-3\nFormat/Info                      : Audio Coding 3\nMode extension                   : CM (complete main)\nCodec ID                         : 2000\nDuration                         : 1h 24mn\nBit rate mode                    : Constant\nBit rate                         : 192 Kbps\nChannel(s)                       : 2 channels\nChannel positions                : Front: L R\nSampling rate                    : 48.0 KHz\nBit depth                        : 16 bits\nCompression mode                 : Lossy\nDelay relative to video          : 15ms\nStream size                      : 116 MiB (11%)\nAlignment                        : Split accross interleaves\nInterleave, duration             : 42 ms (1.00 video frame)\nInterleave, preload duration     : 500 ms\n\n\nScreenshots:\n[img]http://leetleech.org/images/61248674206797226598.png[/img]\n[img]http://leetleech.org/images/49370390656209645995.png[/img]\n[img]http://leetleech.org/images/89274719342406953267.png[/img]\n[img]http://leetleech.org/images/53239148169291021662.png[/img]\n[img]http://leetleech.org/images/56443774582109018715.png[/img]\n\nNote: N/A\n\nEncoder: thefuzz\n\nEnjoy!\n\nRespects to CaptainHomey, Cyanide, CM8, Rx, Pirate666, THC, ELEKTRI4KA, Killerhz, \nXtremE, PA, YeFsTe and everyone in the struggle...","torrent":{"xt":"urn:btih:11f06d10aa00a8b7dd21aafcaa8f570aa3e7a7f6","amp;dn":"Bite.Marks.2011.DVDSCR.XviD-SiC","amp;tr":["udp%3A%2F%2Ftracker.openbittorrent.com%3A80","udp%3A%2F%2Fopen.demonii.com%3A1337","udp%3A%2F%2Ftracker.coppersurfer.tk%3A6969","udp%3A%2F%2Fexodus.desync.com%3A6969"],"infoHash":"11f06d10aa00a8b7dd21aafcaa8f570aa3e7a7f6","infoHashBuffer":{"type":"Buffer","data":[17,240,109,16,170,0,168,183,221,33,170,252,170,143,87,10,163,231,167,246]},"announce":[],"urlList":[]}}